<svg width="28" height="28" viewBox="0 0 28 28" fill="none" xmlns="http://www.w3.org/2000/svg">
<path d="M14.0003 0.666672C6.64033 0.666672 0.666992 6.64001 0.666992 14C0.666992 21.36 6.64033 27.3333 14.0003 27.3333C21.3603 27.3333 27.3337 21.36 27.3337 14C27.3337 6.64001 21.3603 0.666672 14.0003 0.666672ZM20.6003 11.64L13.0537 19.1867C12.9303 19.3103 12.7838 19.4083 12.6225 19.4752C12.4612 19.5422 12.2883 19.5766 12.1137 19.5766C11.939 19.5766 11.7661 19.5422 11.6048 19.4752C11.4435 19.4083 11.297 19.3103 11.1737 19.1867L7.40033 15.4133C7.27688 15.2899 7.17896 15.1433 7.11216 14.9821C7.04535 14.8208 7.01096 14.6479 7.01096 14.4733C7.01096 14.2988 7.04535 14.1259 7.11216 13.9646C7.17896 13.8033 7.27688 13.6568 7.40033 13.5333C7.52377 13.4099 7.67032 13.312 7.8316 13.2452C7.99289 13.1784 8.16575 13.144 8.34033 13.144C8.5149 13.144 8.68777 13.1784 8.84905 13.2452C9.01034 13.312 9.15688 13.4099 9.28033 13.5333L12.107 16.36L18.707 9.76C18.8303 9.6364 18.9769 9.53834 19.1382 9.47143C19.2995 9.40452 19.4724 9.37008 19.647 9.37008C19.8216 9.37008 19.9945 9.40452 20.1558 9.47143C20.3171 9.53834 20.4636 9.6364 20.587 9.76C21.1203 10.28 21.1203 11.12 20.6003 11.64Z" fill="#3CC13B"/>
</svg>
