<svg width="214" height="126" viewBox="0 0 214 126" fill="none" xmlns="http://www.w3.org/2000/svg">
<path d="M23.9948 67.1861C25.6017 65.433 27.2452 63.607 28.9252 61.7078C30.6783 59.8087 32.3583 57.9461 33.9652 56.12C35.5722 54.2209 37.0696 52.4313 38.4574 50.7513C39.9183 49.0713 41.16 47.6104 42.1826 46.3687H61.5757C57.7043 50.8243 53.9061 55.0974 50.1809 59.1878C46.5287 63.2052 42.5113 67.3687 38.1287 71.6783C40.32 73.6504 42.5843 76.0243 44.9217 78.8C47.2591 81.5026 49.5235 84.3148 51.7148 87.2365C53.9061 90.1583 55.9148 93.08 57.7409 96.0017C59.567 98.9235 61.1009 101.59 62.3426 104H43.607C42.4383 102.101 41.087 100.019 39.553 97.7548C38.0922 95.4174 36.5217 93.1165 34.8417 90.8522C33.1617 88.5148 31.3722 86.287 29.473 84.1687C27.647 82.0504 25.8209 80.2609 23.9948 78.8V104H7.66957V21.607L23.9948 18.9774V67.1861ZM121.066 75.0748C121.066 79.6035 120.409 83.767 119.094 87.5652C117.779 91.2904 115.88 94.5043 113.397 97.207C110.913 99.8365 107.918 101.882 104.412 103.343C100.979 104.803 97.1079 105.534 92.7983 105.534C88.5618 105.534 84.6905 104.803 81.1844 103.343C77.7514 101.882 74.7931 99.8365 72.3096 97.207C69.8261 94.5043 67.8905 91.2904 66.5027 87.5652C65.1148 83.767 64.4209 79.6035 64.4209 75.0748C64.4209 70.5461 65.1148 66.4191 66.5027 62.6939C67.9635 58.9687 69.9357 55.7913 72.4192 53.1617C74.9757 50.5322 77.9705 48.487 81.4035 47.0261C84.9096 45.5652 88.7079 44.8348 92.7983 44.8348C96.9618 44.8348 100.76 45.5652 104.193 47.0261C107.699 48.487 110.694 50.5322 113.177 53.1617C115.661 55.7913 117.597 58.9687 118.984 62.6939C120.372 66.4191 121.066 70.5461 121.066 75.0748ZM104.412 75.0748C104.412 70.0348 103.39 66.0904 101.344 63.2417C99.3722 60.32 96.5235 58.8591 92.7983 58.8591C89.0731 58.8591 86.1879 60.32 84.1427 63.2417C82.0974 66.0904 81.0748 70.0348 81.0748 75.0748C81.0748 80.1148 82.0974 84.1322 84.1427 87.127C86.1879 90.0487 89.0731 91.5096 92.7983 91.5096C96.5235 91.5096 99.3722 90.0487 101.344 87.127C103.39 84.1322 104.412 80.1148 104.412 75.0748ZM150.257 92.2765C153.251 92.2765 155.37 91.9843 156.611 91.4C157.853 90.8157 158.474 89.6835 158.474 88.0035C158.474 86.6887 157.671 85.5565 156.064 84.607C154.457 83.5843 152.01 82.4522 148.723 81.2104C146.166 80.2609 143.829 79.2748 141.711 78.2522C139.665 77.2296 137.912 76.0243 136.451 74.6365C134.991 73.1757 133.858 71.4591 133.055 69.487C132.251 67.5148 131.85 65.1409 131.85 62.3652C131.85 56.96 133.858 52.687 137.876 49.5461C141.893 46.4052 147.408 44.8348 154.42 44.8348C157.926 44.8348 161.286 45.1635 164.5 45.8209C167.714 46.4052 170.271 47.0626 172.17 47.793L169.321 60.5026C167.422 59.8452 165.34 59.2609 163.076 58.7496C160.885 58.2383 158.401 57.9826 155.625 57.9826C150.512 57.9826 147.956 59.407 147.956 62.2557C147.956 62.913 148.065 63.4974 148.285 64.0087C148.504 64.52 148.942 65.0313 149.599 65.5426C150.257 65.9809 151.133 66.4922 152.229 67.0765C153.398 67.5878 154.858 68.1722 156.611 68.8296C160.191 70.1443 163.149 71.4591 165.486 72.7739C167.824 74.0157 169.65 75.4035 170.965 76.9374C172.352 78.3983 173.302 80.0417 173.813 81.8678C174.398 83.6939 174.69 85.8122 174.69 88.2226C174.69 93.92 172.535 98.2296 168.225 101.151C163.989 104.073 157.963 105.534 150.147 105.534C145.034 105.534 140.761 105.096 137.328 104.219C133.968 103.343 131.631 102.612 130.316 102.028L133.055 88.7704C135.831 89.8661 138.679 90.7426 141.601 91.4C144.523 91.9843 147.408 92.2765 150.257 92.2765ZM203.215 104H186.89V46.3687H203.215V104ZM204.749 29.7148C204.749 32.7096 203.763 35.0835 201.791 36.8365C199.892 38.5165 197.627 39.3565 194.998 39.3565C192.368 39.3565 190.067 38.5165 188.095 36.8365C186.196 35.0835 185.247 32.7096 185.247 29.7148C185.247 26.72 186.196 24.3826 188.095 22.7026C190.067 20.9496 192.368 20.073 194.998 20.073C197.627 20.073 199.892 20.9496 201.791 22.7026C203.763 24.3826 204.749 26.72 204.749 29.7148Z" fill="#E7E7E7"/>
<path d="M198.336 19.6892C195.983 18.8983 193.423 18.9786 191.124 19.9155C188.825 20.8523 186.941 22.5831 185.817 24.7913C184.693 26.9995 184.403 29.5375 185.001 31.9411C185.599 34.3447 187.045 36.4533 189.074 37.8812C191.103 39.3092 193.58 39.961 196.051 39.7175C198.523 39.4741 200.824 38.3515 202.533 36.5553C204.243 34.759 205.247 32.4091 205.362 29.9352C205.477 27.4614 204.695 25.029 203.159 23.0829L195.035 29.4584L198.336 19.6892Z" fill="#F2994A"/>
<path d="M6.89203 20.6181L24.122 17.1818V35.509H6.89203V20.6181Z" fill="#F2994A"/>
</svg>
