<svg width="14" height="14" viewBox="0 0 14 14" fill="none" xmlns="http://www.w3.org/2000/svg">
<path d="M8.50012 0.5C5.74412 0.5 3.50012 2.744 3.50012 5.5C3.50012 6.6975 3.92013 7.795 4.62512 8.6565L0.640625 12.64L1.36012 13.36L5.34412 9.3755C6.2339 10.105 7.34956 10.5025 8.50012 10.5C11.2561 10.5 13.5001 8.256 13.5001 5.5C13.5001 2.744 11.2561 0.5 8.50012 0.5ZM8.50012 1.5C10.7151 1.5 12.5001 3.285 12.5001 5.5C12.5001 7.715 10.7151 9.5 8.50012 9.5C6.28512 9.5 4.50012 7.715 4.50012 5.5C4.50012 3.285 6.28512 1.5 8.50012 1.5Z" fill="#121212"/>
</svg>
