<svg width="25" height="32" viewBox="0 0 25 32" fill="none" xmlns="http://www.w3.org/2000/svg">
<path fill-rule="evenodd" clip-rule="evenodd" d="M4.85944 6H23.9994C24.2709 6.0178 24.5254 6.13834 24.7112 6.33711C24.897 6.53587 25 6.79794 24.9994 7.07V31C24.9994 31.2652 24.8941 31.5196 24.7066 31.7071C24.519 31.8946 24.2647 32 23.9994 32H4.85944C3.82303 31.9637 2.84122 31.5263 2.12109 30.7801C1.40096 30.0338 0.998808 29.037 0.999443 28V4.73C0.989808 4.65029 0.989808 4.56971 0.999443 4.49C0.989769 4.32681 0.989769 4.16319 0.999443 4C0.998808 2.96295 1.40096 1.96619 2.12109 1.21994C2.84122 0.473694 3.82303 0.0362965 4.85944 0H23.9994C24.2647 0 24.519 0.105357 24.7066 0.292893C24.8941 0.48043 24.9994 0.734784 24.9994 1C24.9994 1.26522 24.8941 1.51957 24.7066 1.70711C24.519 1.89464 24.2647 2 23.9994 2H4.85944C4.35364 2.03549 3.8802 2.26177 3.53489 2.63307C3.18959 3.00436 2.9982 3.49296 2.99944 4C2.98456 4.25479 3.02144 4.50995 3.10786 4.7501C3.19427 4.99025 3.32842 5.21041 3.50223 5.3973C3.67604 5.5842 3.88591 5.73395 4.11917 5.83753C4.35242 5.94112 4.60425 5.99638 4.85944 6ZM21 12H7V16H21V12Z" fill="#C2C9D1"/>
<path fill-rule="evenodd" clip-rule="evenodd" d="M4.85944 6H23.9994C24.2709 6.0178 24.5254 6.13834 24.7112 6.33711C24.897 6.53587 25 6.79794 24.9994 7.07V31C24.9994 31.2652 24.8941 31.5196 24.7066 31.7071C24.519 31.8946 24.2647 32 23.9994 32H4.85944C3.82303 31.9637 2.84122 31.5263 2.12109 30.7801C1.40096 30.0338 0.998808 29.037 0.999443 28V4.73C0.989808 4.65029 0.989808 4.56971 0.999443 4.49C0.989769 4.32681 0.989769 4.16319 0.999443 4C0.998808 2.96295 1.40096 1.96619 2.12109 1.21994C2.84122 0.473694 3.82303 0.0362965 4.85944 0H23.9994C24.2647 0 24.519 0.105357 24.7066 0.292893C24.8941 0.48043 24.9994 0.734784 24.9994 1C24.9994 1.26522 24.8941 1.51957 24.7066 1.70711C24.519 1.89464 24.2647 2 23.9994 2H4.85944C4.35364 2.03549 3.8802 2.26177 3.53489 2.63307C3.18959 3.00436 2.9982 3.49296 2.99944 4C2.98456 4.25479 3.02144 4.50995 3.10786 4.7501C3.19427 4.99025 3.32842 5.21041 3.50223 5.3973C3.67604 5.5842 3.88591 5.73395 4.11917 5.83753C4.35242 5.94112 4.60425 5.99638 4.85944 6ZM21 12H7V16H21V12Z" fill="black" fill-opacity="0.25"/>
</svg>
