<svg width="33" height="33" viewBox="0 0 33 33" fill="none" xmlns="http://www.w3.org/2000/svg">
<path d="M16.5 28.2C12.4375 28.2 8.84625 26.12 6.75 23C6.79875 19.75 13.25 17.9625 16.5 17.9625C19.75 17.9625 26.2013 19.75 26.25 23C25.1757 24.5997 23.7245 25.9106 22.0243 26.8174C20.3241 27.7242 18.4269 28.199 16.5 28.2ZM16.5 5.125C17.7929 5.125 19.0329 5.63861 19.9471 6.55285C20.8614 7.46709 21.375 8.70707 21.375 10C21.375 11.2929 20.8614 12.5329 19.9471 13.4471C19.0329 14.3614 17.7929 14.875 16.5 14.875C15.2071 14.875 13.9671 14.3614 13.0529 13.4471C12.1386 12.5329 11.625 11.2929 11.625 10C11.625 8.70707 12.1386 7.46709 13.0529 6.55285C13.9671 5.63861 15.2071 5.125 16.5 5.125ZM16.5 0.25C14.366 0.25 12.2529 0.670319 10.2814 1.48696C8.30985 2.3036 6.51847 3.50056 5.00951 5.00951C1.96205 8.05698 0.25 12.1902 0.25 16.5C0.25 20.8098 1.96205 24.943 5.00951 27.9905C6.51847 29.4994 8.30985 30.6964 10.2814 31.513C12.2529 32.3297 14.366 32.75 16.5 32.75C20.8098 32.75 24.943 31.038 27.9905 27.9905C31.038 24.943 32.75 20.8098 32.75 16.5C32.75 7.51375 25.4375 0.25 16.5 0.25Z" fill="#949AA6"/>
</svg>
