<svg width="31" height="30" viewBox="0 0 31 30" fill="none" xmlns="http://www.w3.org/2000/svg">
<path d="M30.5705 12.72L27.2205 11.72C26.9888 10.9113 26.6703 10.1301 26.2705 9.39002L27.9105 6.32002C27.972 6.20413 27.9945 6.0715 27.9747 5.9418C27.9549 5.81209 27.8938 5.69224 27.8005 5.60002L25.4105 3.20002C25.3182 3.10668 25.1984 3.04558 25.0687 3.02576C24.939 3.00595 24.8063 3.02848 24.6905 3.09002L21.6405 4.72002C20.8931 4.30068 20.1016 3.9653 19.2805 3.72002L18.2805 0.410016C18.2382 0.288032 18.1582 0.182615 18.0522 0.108938C17.9462 0.0352605 17.8195 -0.00287657 17.6905 1.58396e-05H14.3105C14.1806 0.000620413 14.0543 0.0426504 13.95 0.119989C13.8457 0.197328 13.7688 0.305939 13.7305 0.430016L12.7305 3.73002C11.9025 3.97399 11.1042 4.30939 10.3505 4.73002L7.35046 3.11002C7.23458 3.04848 7.10194 3.02595 6.97224 3.04576C6.84254 3.06558 6.72268 3.12668 6.63046 3.22002L4.20046 5.59002C4.10713 5.68224 4.04602 5.80209 4.0262 5.9318C4.00639 6.0615 4.02892 6.19413 4.09046 6.31002L5.71046 9.31002C5.29052 10.0606 4.95513 10.8555 4.71046 11.68L1.40046 12.68C1.27638 12.7183 1.16777 12.7952 1.09043 12.8996C1.01309 13.0039 0.971064 13.1302 0.970459 13.26V16.64C0.971064 16.7699 1.01309 16.8961 1.09043 17.0005C1.16777 17.1048 1.27638 17.1817 1.40046 17.22L4.73046 18.22C4.97781 19.0308 5.31313 19.8121 5.73046 20.55L4.09046 23.69C4.02892 23.8059 4.00639 23.9385 4.0262 24.0682C4.04602 24.1979 4.10713 24.3178 4.20046 24.41L6.59046 26.8C6.68268 26.8933 6.80254 26.9545 6.93224 26.9743C7.06194 26.9941 7.19458 26.9716 7.31046 26.91L10.4005 25.26C11.1314 25.6544 11.9025 25.9696 12.7005 26.2L13.7005 29.57C13.7388 29.6941 13.8157 29.8027 13.92 29.88C14.0243 29.9574 14.1506 29.9994 14.2805 30H17.6605C17.7903 29.9994 17.9166 29.9574 18.0209 29.88C18.1252 29.8027 18.2021 29.6941 18.2405 29.57L19.2405 26.19C20.0316 25.9584 20.7959 25.6433 21.5205 25.25L24.6305 26.91C24.7463 26.9716 24.879 26.9941 25.0087 26.9743C25.1384 26.9545 25.2582 26.8933 25.3505 26.8L27.7405 24.41C27.8338 24.3178 27.8949 24.1979 27.9147 24.0682C27.9345 23.9385 27.912 23.8059 27.8505 23.69L26.1905 20.59C26.5878 19.8627 26.9063 19.095 27.1405 18.3L30.5105 17.3C30.6345 17.2617 30.7431 17.1848 30.8205 17.0805C30.8978 16.9761 30.9399 16.8499 30.9405 16.72V13.31C30.9464 13.1857 30.9141 13.0625 30.8479 12.957C30.7818 12.8516 30.685 12.7689 30.5705 12.72ZM16.0005 20.5C14.9127 20.5 13.8493 20.1774 12.9448 19.5731C12.0404 18.9688 11.3354 18.1098 10.9191 17.1048C10.5028 16.0998 10.3939 14.9939 10.6061 13.927C10.8184 12.8601 11.3422 11.8801 12.1114 11.1109C12.8806 10.3417 13.8606 9.81792 14.9275 9.6057C15.9944 9.39348 17.1002 9.5024 18.1052 9.91868C19.1102 10.335 19.9692 11.0399 20.5735 11.9444C21.1779 12.8489 21.5005 13.9122 21.5005 15C21.5005 16.4587 20.921 17.8577 19.8895 18.8891C18.8581 19.9206 17.4591 20.5 16.0005 20.5Z" fill="#92979D"/>
</svg>
