<svg width="28" height="28" viewBox="0 0 28 28" fill="none" xmlns="http://www.w3.org/2000/svg">
<path d="M2 15.5H11C11.825 15.5 12.5 14.825 12.5 14V2C12.5 1.175 11.825 0.5 11 0.5H2C1.175 0.5 0.5 1.175 0.5 2V14C0.5 14.825 1.175 15.5 2 15.5ZM2 27.5H11C11.825 27.5 12.5 26.825 12.5 26V20C12.5 19.175 11.825 18.5 11 18.5H2C1.175 18.5 0.5 19.175 0.5 20V26C0.5 26.825 1.175 27.5 2 27.5ZM17 27.5H26C26.825 27.5 27.5 26.825 27.5 26V14C27.5 13.175 26.825 12.5 26 12.5H17C16.175 12.5 15.5 13.175 15.5 14V26C15.5 26.825 16.175 27.5 17 27.5ZM15.5 2V8C15.5 8.825 16.175 9.5 17 9.5H26C26.825 9.5 27.5 8.825 27.5 8V2C27.5 1.175 26.825 0.5 26 0.5H17C16.175 0.5 15.5 1.175 15.5 2Z" fill="#F2994A"/>
</svg>
